<?xml version="1.0" standalone="no"?>
<!DOCTYPE svg PUBLIC "-//W3C//DTD SVG 20010904//EN"
 "http://www.w3.org/TR/2001/REC-SVG-20010904/DTD/svg10.dtd">
<svg version="1.0" xmlns="http://www.w3.org/2000/svg"
 width="882.000000pt" height="882.000000pt" viewBox="0 0 882.000000 882.000000"
 preserveAspectRatio="xMidYMid meet">
<metadata>
Created by potrace 1.14, written by Peter Selinger 2001-2017
</metadata>
<g transform="translate(0.000000,882.000000) scale(0.100000,-0.100000)"
fill="#000000" stroke="none">
<path d="M6457 6874 c-1 -1 -32 -5 -68 -8 -75 -5 -213 -36 -304 -67 -104 -35
-316 -146 -414 -216 -315 -226 -580 -583 -748 -1009 l-48 -121 -125 39 c-69
22 -138 40 -153 40 -49 2 -87 -38 -289 -299 l-77 -100 -125 -62 c-70 -33 -128
-61 -130 -61 -3 0 -26 -10 -53 -22 -26 -11 -54 -22 -60 -24 -15 -3 -136 -64
-325 -163 -151 -79 -133 -75 -393 -86 -219 -9 -316 -15 -350 -21 -50 -10 -503
-238 -615 -309 -143 -92 -226 -135 -250 -130 -11 2 -53 19 -93 38 l-73 34 2
264 c3 433 29 877 60 1044 2 10 6 37 9 60 6 39 11 68 20 113 3 12 7 32 10 45
18 86 28 125 35 142 4 11 18 49 30 85 89 260 282 480 513 584 113 51 226 77
337 78 57 1 239 -10 265 -16 11 -2 51 -11 89 -20 383 -90 638 -384 771 -891
15 -55 30 -113 35 -130 5 -16 11 -46 14 -65 3 -19 8 -46 11 -60 3 -14 8 -41
11 -60 3 -19 7 -46 10 -60 2 -14 6 -45 10 -70 3 -25 7 -52 10 -61 6 -20 51
-42 59 -28 4 5 10 7 14 4 23 -14 27 86 26 766 0 646 -2 728 -16 742 -23 22
-57 3 -95 -57 -105 -159 -239 -168 -528 -36 -333 152 -639 196 -931 134 -38
-9 -83 -18 -99 -20 -87 -16 -414 -165 -446 -203 -3 -4 -18 -15 -35 -25 -84
-53 -253 -206 -353 -321 -47 -54 -173 -227 -194 -266 -8 -13 -25 -42 -39 -64
-14 -22 -35 -60 -48 -85 -12 -25 -26 -52 -31 -60 -25 -42 -58 -119 -53 -124 4
-3 1 -6 -5 -6 -7 0 -12 -8 -12 -18 0 -10 -3 -22 -7 -26 -20 -20 -135 -380
-148 -463 -2 -11 -6 -29 -9 -40 -3 -10 -8 -34 -11 -53 -3 -19 -8 -42 -10 -50
-3 -8 -9 -46 -14 -85 -6 -38 -13 -86 -16 -105 -14 -96 -17 -146 -20 -404 l-3
-279 -38 -23 c-22 -13 -46 -28 -54 -34 -50 -34 -154 -100 -158 -100 -2 0 -19
-12 -37 -27 -17 -16 -42 -35 -55 -43 -53 -35 -158 -123 -255 -215 l-50 -47 62
34 c52 28 176 100 349 203 286 171 542 308 686 368 63 26 165 17 293 -28 138
-47 150 -54 324 -164 78 -50 146 -91 150 -91 4 0 16 -8 27 -17 11 -10 40 -29
65 -42 24 -13 76 -44 114 -69 153 -98 156 -99 85 -32 -87 82 -108 100 -155
135 -22 17 -44 33 -50 38 -5 4 -26 20 -46 35 -20 15 -51 38 -69 52 -79 59
-131 102 -128 105 22 21 369 218 483 275 83 41 153 79 156 83 3 5 9 9 12 8 4
0 28 9 54 21 57 25 47 24 443 43 235 12 215 7 371 90 205 108 303 155 474 225
83 34 191 82 240 107 98 50 81 30 229 261 26 39 50 72 55 72 7 0 89 -124 124
-189 24 -44 55 -139 66 -205 16 -90 21 -103 54 -166 36 -69 22 -61 262 -150
138 -52 196 -78 305 -140 l55 -31 -75 71 c-48 45 -100 82 -145 104 -71 35
-214 101 -271 126 -46 20 -76 95 -118 298 -18 86 -55 173 -113 265 -24 37 -37
67 -30 67 6 0 49 -13 95 -30 46 -16 102 -36 125 -44 23 -8 94 -34 157 -56 337
-122 569 -202 710 -243 81 -24 94 -25 285 -22 454 10 560 15 625 31 36 9 74
18 85 20 11 2 31 7 45 11 14 3 52 6 86 6 103 0 131 -22 446 -345 155 -158 285
-288 289 -288 5 0 24 -11 44 -24 20 -14 57 -32 83 -41 26 -9 55 -21 64 -26 10
-5 23 -9 30 -9 7 0 -28 27 -77 59 -50 33 -121 93 -159 133 -151 159 -195 207
-281 303 -214 239 -239 264 -307 297 -76 37 -137 43 -223 23 -235 -56 -232
-56 -635 -59 l-315 -2 -153 52 c-84 29 -156 56 -161 59 -5 3 -8 26 -5 53 14
185 19 235 39 387 4 27 8 52 10 55 2 3 6 30 10 60 4 30 9 58 11 61 2 3 6 21 9
40 3 19 10 50 15 69 5 19 9 37 9 40 -1 3 6 23 14 45 8 22 18 49 23 60 4 11 8
25 9 31 5 21 69 149 77 152 4 2 8 10 8 17 0 8 6 20 13 27 6 7 23 29 37 49 60
86 147 174 245 247 70 52 226 114 340 135 74 13 239 15 340 3 80 -10 198 -36
209 -47 6 -5 18 -9 27 -9 16 0 178 -77 189 -89 3 -3 21 -18 40 -33 54 -41 111
-98 152 -153 21 -28 43 -56 49 -63 20 -24 116 -225 139 -292 28 -81 60 -187
66 -220 3 -14 10 -43 16 -65 5 -22 12 -47 13 -55 2 -8 8 -35 13 -60 5 -25 10
-52 11 -60 0 -8 5 -40 11 -70 6 -30 13 -71 16 -90 2 -19 7 -46 10 -60 2 -14 7
-45 10 -70 11 -100 21 -120 60 -120 54 0 52 -36 50 819 0 434 -4 792 -7 795
-12 13 -45 14 -59 2 -9 -6 -30 -34 -48 -62 -17 -27 -42 -59 -54 -71 -70 -62
-200 -67 -338 -13 -47 18 -87 36 -90 40 -17 23 -301 129 -390 146 -14 2 -36 7
-49 10 -52 12 -315 26 -324 18z"/>
<path d="M5252 4376 c-2 -34 -37 -95 -73 -129 -62 -59 -88 -157 -60 -228 5
-15 6 -31 0 -40 -5 -8 -9 -86 -9 -174 l0 -160 -201 1 -201 1 -107 -91 c-58
-49 -108 -93 -111 -97 -3 -4 -5 -79 -5 -166 l0 -158 553 -1 c392 -1 552 2 553
10 0 6 1 62 1 124 1 62 4 114 7 117 4 2 42 5 86 6 43 1 122 10 174 19 235 43
296 42 404 -4 111 -47 157 -58 235 -55 80 3 153 21 230 56 85 39 184 36 307
-7 86 -31 207 -35 287 -10 34 10 65 17 69 14 9 -5 5 -586 -3 -600 -4 -5 -9
-28 -11 -49 -3 -22 -10 -60 -17 -85 -7 -25 -13 -49 -15 -55 -3 -16 -15 -46
-46 -118 -53 -126 -150 -251 -259 -333 -49 -37 -185 -100 -255 -119 -139 -36
-324 -38 -448 -4 -23 6 -49 13 -58 14 -35 7 -169 74 -227 114 -68 46 -172 144
-217 206 -17 22 -35 46 -42 52 -6 7 -36 63 -66 125 -55 112 -85 191 -105 278
-22 94 -27 84 62 113 44 15 84 27 89 27 25 0 75 42 174 147 118 124 168 183
143 168 -17 -10 -132 -105 -140 -114 -3 -4 -32 -28 -66 -54 -53 -42 -82 -56
-144 -72 -8 -2 -30 -8 -47 -14 -18 -5 -33 -8 -33 -5 0 3 -9 0 -20 -6 -67 -36
-1435 -59 -1469 -24 -3 3 -6 163 -6 355 0 380 2 369 -56 369 -34 0 -42 -22
-63 -160 -15 -98 -20 -125 -30 -175 -16 -76 -30 -131 -52 -210 l-25 -90 -57 0
c-105 -1 -207 -26 -325 -80 -86 -38 -147 -52 -242 -54 -97 -2 -159 12 -315 67
-98 35 -147 45 -245 47 -85 1 -121 -9 -248 -69 -132 -63 -217 -84 -345 -84
-117 0 -134 4 -251 60 -46 22 -88 41 -95 43 -6 1 -18 5 -26 8 -54 22 -253 31
-300 14 -8 -3 -33 -9 -55 -12 -22 -3 -67 -13 -100 -21 -33 -9 -67 -17 -75 -19
-8 -2 -42 -10 -75 -18 -33 -9 -71 -18 -85 -21 -14 -2 -47 -9 -75 -15 -109 -21
-271 -33 -465 -33 -114 -1 -93 -13 40 -23 111 -10 368 -11 425 -2 100 15 179
28 185 32 3 2 30 6 60 10 l55 6 35 -61 c45 -80 94 -157 123 -195 147 -194 280
-331 429 -439 56 -42 108 -80 113 -84 52 -40 312 -153 410 -178 17 -4 35 -8
40 -10 6 -1 28 -5 50 -9 22 -4 42 -8 45 -10 3 -2 41 -7 85 -11 259 -25 470 13
715 128 36 17 101 48 145 69 182 86 294 103 394 58 60 -26 85 -50 137 -130 30
-47 51 -68 69 -71 50 -10 50 -8 51 466 1 243 2 447 3 454 1 8 11 10 34 6 48
-10 469 -11 490 -2 9 5 17 5 17 1 0 -4 21 -7 47 -6 27 1 48 2 48 3 0 1 58 2
128 3 l128 2 35 -62 c19 -34 55 -92 79 -129 25 -37 45 -70 45 -74 0 -5 3 -10
8 -12 4 -1 34 -37 66 -78 67 -84 230 -250 291 -295 22 -17 51 -40 65 -53 14
-12 33 -25 43 -28 9 -3 17 -10 17 -15 0 -5 5 -9 11 -9 6 0 29 -13 52 -28 112
-76 368 -179 490 -197 23 -4 44 -8 47 -10 10 -6 186 -18 260 -18 230 1 370 46
698 223 113 61 213 91 307 91 170 0 302 -68 373 -193 14 -26 37 -52 50 -57 29
-14 28 -14 46 5 14 13 16 119 16 954 0 565 4 949 10 964 12 32 33 35 243 34
107 -1 172 3 179 10 13 13 18 72 7 93 -7 14 -88 16 -836 15 l-828 -1 -6 -37
c-3 -21 -1 -48 5 -59 11 -21 16 -22 273 -23 199 -1 265 -4 275 -14 9 -9 13
-65 14 -217 l2 -204 -38 -15 c-60 -24 -89 -29 -167 -28 -45 1 -93 9 -130 22
-130 46 -232 55 -309 26 -21 -8 -70 -26 -109 -41 -49 -19 -94 -27 -151 -30
-84 -3 -85 -3 -259 62 -45 17 -155 18 -230 3 -27 -5 -61 -12 -75 -15 -14 -2
-54 -11 -90 -19 -110 -24 -171 -31 -239 -27 -7 1 -11 7 -8 15 6 15 -16 49 -63
97 -14 15 -43 47 -65 73 l-40 46 -3 153 c-3 205 -3 205 4 263 7 63 -19 125
-82 192 -24 25 -51 67 -61 94 -19 53 -28 60 -31 24z m45 -476 c7 -9 12 -47 13
-93 l0 -78 -47 3 -47 3 2 80 c2 61 6 83 19 92 21 16 44 13 60 -7z m-1387 -906
c0 -14 -99 -238 -127 -287 -18 -33 -33 -61 -33 -64 0 -8 -101 -156 -139 -203
-37 -46 -143 -153 -177 -180 -66 -51 -97 -72 -164 -108 -208 -113 -456 -144
-696 -89 -41 10 -177 68 -204 87 -16 11 -31 20 -36 20 -12 0 -96 70 -160 134
-58 59 -124 143 -153 196 -61 112 -116 248 -136 338 -7 32 -6 34 16 27 13 -4
29 -11 35 -16 48 -39 266 -58 389 -34 36 6 65 9 65 6 0 -3 5 0 12 7 7 7 17 12
24 12 6 0 61 23 120 52 l109 52 100 0 c117 -1 136 -4 263 -51 53 -19 104 -36
112 -38 149 -29 305 -17 406 30 120 56 178 79 239 95 65 17 135 24 135 14z"/>
<path d="M1445 3547 l0 -301 -40 -2 c-228 -12 -291 -17 -298 -21 -4 -2 14 -22
40 -42 l48 -38 335 0 335 0 40 56 c22 30 42 59 44 64 3 8 -40 7 -361 -9 -108
-5 -116 -4 -114 13 3 19 5 19 124 24 40 2 78 6 84 10 10 6 7 89 -6 159 -3 14
-7 43 -11 64 -24 165 -70 259 -146 298 -80 41 -74 63 -74 -275z"/>
</g>
</svg>
