<svg xmlns="http://www.w3.org/2000/svg" viewBox="0 0 882.17441 513.63125"><g style="isolation:isolate"><g id="korken" style="mix-blend-mode:darken"><path d="M458.46288,149.55364c-.03733.041-.05955.05968-.02987.01867A.33159.33159,0,0,0,458.46288,149.55364Z"/><path d="M404.177,191.5071c-.16042.07459-.32448.14918-.48472.22l-.65261.14918Z"/><path d="M458.63766,149.25557v.14168a.27716.27716,0,0,0-.01976-.10129C458.6179,149.27582,458.63766,149.27582,458.63766,149.25557Z"/><path d="M458.65322,149.44435l-.001-.00384C458.65117,149.44,458.64815,149.43119,458.65322,149.44435Z"/><path d="M847.413,293.67508H685.99339c-2.24666,0-3.37962.6679-3.37962,5.92977,0,5.28213,1.133,5.95,3.37962,5.95h44.28136c8.39864,0,9.51184,1.31553,9.51184,11.2119v32.74533c-2.79313,1.03217-5.42369,2.1655-7.97422,2.9143a34.88589,34.88589,0,0,1-9.289,1.437,51.5815,51.5815,0,0,1-9.55235-.54647,38.19971,38.19971,0,0,1-4.55359-1.07256c-1.51786-.4857-3.056-1.07268-4.67513-1.65954a53.34667,53.34667,0,0,0-10.48323-2.81314c-1.80148-.3035-3.56194-.50595-5.40344-.64764a36.82011,36.82011,0,0,0-5.58624.04052,31.4904,31.4904,0,0,0-10.90816,2.99521,72.59029,72.59029,0,0,1-9.06666,3.8453,46.26586,46.26586,0,0,1-9.37052,1.82148c-1.61866.18208-3.25807.263-4.89748.32376l-2.469.04052-2.36771-.06078a29.7995,29.7995,0,0,1-9.0464-2.04407c-2.93493-1.17373-6.03093-2.87379-9.55285-4.04763a37.45367,37.45367,0,0,0-10.80686-1.9024,59.50173,59.50173,0,0,0-10.66555.76906c-3.46065.52622-6.84026,1.23463-10.20012,1.96317-6.699,1.45709-13.31687,3.09637-19.9753,4.20945-2.44874.4453-11.45613.70841-13.94539.91074v-4.79643l-16.776-18.41669V302.47864a2.17154,2.17154,0,0,0-.64776-1.55826,3.42006,3.42006,0,0,1-.44469-4.31074,15.618,15.618,0,0,0,1.15322-11.53578,33.61148,33.61148,0,0,0-10.82761-16.10962c-2.59-2.1655-4.18895-8.37851-4.89748-11.75837a.44564.44564,0,0,0-.8701,0c-.78907,3.46077-2.59055,10.01792-5.26163,12.46678-4.77642,4.35113-9.35027,10.706-9.95751,16.27144a23.67271,23.67271,0,0,0,1.70018,11.3941c.52621,1.2345-.46544,2.4286-1.174,3.19766a2.39113,2.39113,0,0,0-.54647,1.49761l.18232,30.74177H470.39615l-22.424,19.02381v32.40132H558.99739v-25.5c2.6108-.02026,11.78026-.14168,14.39106-.4453,6.901-.74881,13.62025-2.08447,20.339-3.17741,6.6787-1.0523,13.43842-2.24641,19.77273-1.84162a31.4634,31.4634,0,0,1,9.22872,2.00356c2.93493,1.11307,5.82885,2.75236,9.18821,4.20957a35.49064,35.49064,0,0,0,10.80736,2.71185l2.75211.16194,2.65132.02025c1.78121-.02025,3.56193-.06065,5.34266-.20233a46.94488,46.94488,0,0,0,10.72632-1.96316,77.73154,77.73154,0,0,0,9.836-4.02738,24.94524,24.94524,0,0,1,8.76328-2.36783,42.6352,42.6352,0,0,1,9.41055.54635,48.18893,48.18893,0,0,1,9.30975,2.4286c1.57815.56673,3.23781,1.17385,4.99828,1.72032a40.55482,40.55482,0,0,0,5.42418,1.2345c.91062.14168,1.82124.24285,2.73235.344.91062.06078,1.82124.14168,2.7116.1822l2.69183.06065,2.73235-.06065a39.961,39.961,0,0,0,10.84738-2.02382c2.16563-.70841,4.18944-1.57863,6.13223-2.40834v41.4072c0,61.98951-34.18205,98.92417-85.18262,98.92417-25.7834,0-49.88688-10.56427-68.38484-32.3203-11.49514-13.51907-20.29844-29.75012-26.39064-57.82045l22.66714-7.731s20.37947-21.00723,23.61778-24.56916l4.29072-6.57741c-4.45279,3.88582-26.85608,23.13221-29.73024,24.00256-8.156,2.48925-22.76793,5.80834-22.76793,5.80834s-109.77179,5.869-141.8895,1.11308V329.17278c0-2.61068-2.77287-3.92621-4.99877-3.92621-2.79312,0-4.45279,1.31553-5.019,3.92621a340.21692,340.21692,0,0,1-12.58858,59.986,27.18947,27.18947,0,0,0-7.0626-.50595c-2.97545.14168-5.64653.60712-8.37888.99165a75.533,75.533,0,0,0-16.15,4.53333c-5.2216,2.04407-10.038,4.45242-14.73344,5.97028a47.56113,47.56113,0,0,1-14.40932,2.48926,72.28809,72.28809,0,0,1-14.83473-.95114,53.33619,53.33619,0,0,1-7.0631-1.86187c-2.34745-.82984-4.73591-1.82149-7.26568-2.8334a75.74711,75.74711,0,0,0-16.25131-4.8976c-2.79263-.506-5.525-.85-8.37838-1.09294a49.80072,49.80072,0,0,0-8.68225.06078,44.38848,44.38848,0,0,0-16.91883,5.20122c-5.05954,2.59042-9.4313,4.99877-14.10644,6.61792a64.83672,64.83672,0,0,1-14.53086,3.17728c-2.50951.30362-5.03928.425-7.58931.54647l-3.84555.06078-3.66273-.12143a41.952,41.952,0,0,1-14.04567-3.52154c-4.57335-2.02382-9.37-4.95825-14.814-6.98207a52.83014,52.83014,0,0,0-16.79777-3.31909,85.36158,85.36158,0,0,0-16.53443,1.37618c-5.36341.89048-10.60477,2.10473-15.82638,3.35948-10.42246,2.52977-20.68334,5.34291-31.005,7.28582a127.673,127.673,0,0,1-15.563,1.90239c-5.26162.38453-10.544.60712-15.82638.82971-5.28189.20245-10.58452.28336-15.88666.28336-5.28238,0-10.58452-.06077-15.88716-.32375a308.543,308.543,0,0,0,31.7333,3.17728c5.3229.28336,10.64579.40479,15.98845.425a131.05725,131.05725,0,0,0,16.12976-.80958c10.24063-1.2345,20.27868-3.44039,30.27622-5.24162,33.14987,62.09068,87.18617,100.9885,148.18378,100.9885,51.20266,0,71.78471-28.81925,100.17892-28.81925,10.01779,0,18.92288,5.24174,25.03485,16.37273,2.79263,5.24161,3.90583,6.55714,7.24492,6.55714,3.3396,0,3.88607-1.963,3.88607-7.20478v-86.336c8.29735,1.49761,16.57494,1.33567,24.50814,1.57851l65.18755-1.15359c33.41273,62.1312,87.67137,101.029,148.89182,101.029,57.17282,0,68.38484-31.65252,103.13361-31.65252,18.498,0,30.82269,7.91307,36.99543,19.12509,2.79312,5.28214,3.92658,6.59754,7.28594,6.59754s3.92608-1.9833,3.92608-7.26543V316.76678c0-9.89637,1.1132-11.2119,9.51184-11.2119H847.413c2.24666,0,3.35985-.6679,3.35985-5.95C850.77286,294.343,849.65967,293.67508,847.413,293.67508ZM530.76676,324.47751h-9.2895V310.51325s-.1418-4.837,4.63462-4.837c4.53333,0,4.65488,4.81669,4.65488,4.81669ZM279.6717,494.19486c-25.60108,0-49.543-10.48335-67.91891-32.09782-10.72632-12.6286-19.12546-27.625-25.09562-52.57872,1.7407.931,3.52142,1.88214,5.42369,2.79288a50.66292,50.66292,0,0,0,16.737,4.675l4.29072.26311,4.10841.04051c2.73186-.04051,5.50472-.10129,8.27709-.34414a68.24794,68.24794,0,0,0,16.67623-3.4c5.48447-1.80123,10.6453-4.65476,15.2394-6.96194a35.514,35.514,0,0,1,13.6-4.06789,59.29682,59.29682,0,0,1,14.63215.931,65.55687,65.55687,0,0,1,14.40981,4.20958c2.44874.97139,5.019,2.02381,7.77114,2.95469a58.02349,58.02349,0,0,0,8.39914,2.12511c1.41657.2631,2.83364.42492,4.27047.60712,1.39631.10116,2.81288.24284,4.2092.32375l4.18944.12143,4.18944-.12143a56.81162,56.81162,0,0,0,16.85805-3.50116c5.44395-2.00356,10.24063-4.61436,14.9968-6.65831a78.71322,78.71322,0,0,1,14.47009-4.7763c3.9666-.87023,7.81215-1.57852,11.23228-1.2345C369.04326,459.14234,330.065,494.19486,279.6717,494.19486Z"/><path d="M458.46288,149.55364c-.03733.041-.05955.05968-.02987.01867A.33159.33159,0,0,0,458.46288,149.55364Z"/><path d="M458.63766,158.05912v.14168a.22436.22436,0,0,0-.01976-.10116v-.02026A.01951.01951,0,0,1,458.63766,158.05912Z"/><path d="M458.63766,149.25557v.14168a.27716.27716,0,0,0-.01976-.10129C458.6179,149.27582,458.63766,149.27582,458.63766,149.25557Z"/><polygon points="108.203 374.82 118.464 383.215 185.624 383.215 194.952 370.156 108.203 374.82"/><path d="M168.47056,367.63455l-21.8488,1.21308v4.7142h-2.85633V312.61629s15.14792.62721,19.67775,20.87534C167.973,353.744,168.47056,367.63455,168.47056,367.63455Z"/><path d="M403.044,191.87714l.64727-.14168a5.19285,5.19285,0,0,1,.48569-.22259Z"/><path d="M764.43653,247.24873c-16.83779-17.10128-52.88208-57.98239-54.50124-59.2978a38.15885,38.15885,0,0,0-6.80024-4.35126,48.01848,48.01848,0,0,0-7.326-3.11663,24.13177,24.13177,0,0,0-8.68225-1.2345c-3.11675.14156-23.61827,5.3833-28.15111,6.15236-9.87648,1.65954-66.17919,1.4976-72.67557,1.43695-2.975-.02025-16.77751-4.8572-34.36436-11.25241,4.47255-72.06808,15.988-100.42177,34.28333-121.935,18.498-21.77628,42.60144-32.32041,68.38484-32.32041,82.95622,0,104.24681,55.39185,117.13876,152.98035,0,1.9833,1.67943,3.9666,5.03928,3.9666,3.35936,0,5.05954-1.9833,5.05954-3.9666V22.64561c0-5.28213-1.13345-7.2453-3.92608-7.2453-2.24666,0-4.49331,1.31553-7.28594,6.59766C766.13672,30.55868,759.98424,35.173,747.09278,35.173c-20.74412,0-42.05546-25.72275-92.48881-25.72275-73.78827,0-138.00393,57.07165-167.28849,142.67906-15.74536-5.42381-27.74645-9.04652-30.337-8.2976-7.32646,2.16538-22.40379,26.431-33.41324,38.756-4.25021,4.77617-43.61334,20.82515-43.61334,20.82515-2.95469.78919-39.26184,21.1893-42.21654,21.35124-13.58022.76906-55.97908,1.9833-60.55292,3.27857-1.3558.38453-46.14312,22.40366-50.51438,24.91318-8.70251,5.019-30.17493,20.76437-34.78929,19.0238-5.05954-1.92253-10.625-4.69515-16.27157-7.32621-.02025-2.04395-.02025-4.10828-.02025-6.19287,0-135.55519,12.24419-175.50531,36.16583-203.65655,18.37592-21.59421,42.31783-32.07756,67.91891-32.07756,75.12431,0,107.40408,45.83949,120.215,142.73984.54647,2.63093,2.2259,3.92608,4.99877,3.92608,2.79263,0,5.019-1.963,5.019-3.92608V24.04205c0-5.24174-1.11319-7.20478-3.90582-7.20478-2.2264,0-4.4528,1.29527-7.22517,6.53688-4.4523,8.52032-12.24419,13.09416-22.262,13.09416-22.262,0-47.86356-25.54055-96.83982-25.54055-100.74564,0-182.56841,106.08842-182.56841,247.53287q0,12.6591.89036,24.91317C62.84022,304.13818,45.58852,319.84,31.40155,333.4602c14.95579-7.50828,76.80139-46.99267,106.92663-59.76017,5.12609-2.17252,10.34192-4.1488,15.8669-3.56194,8.27758.87022,31.04552,8.94523,35.275,11.71785,1.51786,1.01191,3.07624,2.00368,4.63462,2.99533,11.17151,7.40712,47.45889,29.20366,61.46355,38.51317.95113.62738-15.96819-15.19888-19.287-17.769L202.84771,280.156s22.01938-13.51907,30.64036-18.518c4.311-2.48925,43.37074-22.14055,44.40291-22.44405,4.2092-1.21437,58.0024-2.85365,63.3248-3.86556.7288-.14168,40.841-21.65486,43.61384-22.6869,0,0,46.60806-17.93111,51.76889-23.7192l18.8216-28.718c1.801,2.24641,4.432,7.08336,6.07145,9.4108a78.24158,78.24158,0,0,1,9.12743,16.08936c.52621,1.37618,2.59054,8.43928,2.59054,8.43928.587,3.60233,2.81289,15.70484,4.47256,18.74056,1.72044,3.07612,5.36292,10.72621,5.36292,10.72621s32.54312,11.75837,40.39529,15.462c9.14769,4.25,25.90495,16.00834,16.8383,8.43928-1.55838-1.29527-6.17274-5.68692-9.65365-9.006a33.81321,33.81321,0,0,0-9.47132-6.39521c-9.99754-4.53345-30.66062-13.90361-30.82269-14.16672a64.42541,64.42541,0,0,1-3.78477-7.12387c-1.295-2.83339-5.05954-19.83338-5.05954-19.83338a66.55421,66.55421,0,0,0-1.71995-8.5,88.82752,88.82752,0,0,0-9.43081-18.80121c-1.27526-1.96317-3.46114-6.39533-4.79668-8.29772,2.65132.32388,109.8123,40.31439,119.64827,40.57749,6.84026.20246,75.488-1.76071,75.488-1.76071s21.49317-5.58575,27.01815-5.90951c3.39987-.20233,7.50828,1.13334,11.53565,3.07624a29.43735,29.43735,0,0,1,5.40344,3.25832,59.10848,59.10848,0,0,1,4.979,4.45242c2.40822,2.40835,29.58794,30.55958,43.37025,44.82746A70.60844,70.60844,0,0,0,768.039,255.93086a25.50421,25.50421,0,0,0,4.1084,1.96316l15.38121,5.78809C766.84476,249.98083,769.01038,251.88322,764.43653,247.24873ZM458.63766,158.2008a.22436.22436,0,0,0-.01976-.10116v-.02026a.01951.01951,0,0,1,.01976-.02026Zm0-8.80355a.27716.27716,0,0,0-.01976-.10129c0-.02014.01976-.02014.01976-.04039Z"/><path d="M404.177,191.5071c-.16042.07459-.32448.14918-.48472.22l-.65261.14918Z"/><path d="M458.46288,149.55364c-.03733.041-.05955.05968-.02987.01867A.33159.33159,0,0,0,458.46288,149.55364Z"/><path d="M458.63766,149.25557v.14168a.27716.27716,0,0,0-.01976-.10129C458.6179,149.27582,458.63766,149.27582,458.63766,149.25557Z"/></g></g></svg>